<svg width="242" height="242" viewBox="0 0 242 242" fill="none" xmlns="http://www.w3.org/2000/svg">
<path d="M241.192 121C241.192 187.38 187.38 241.192 121 241.192C54.6196 241.192 0.807678 187.38 0.807678 121C0.807678 54.6196 54.6196 0.807693 121 0.807693C187.38 0.807693 241.192 54.6196 241.192 121Z" fill="#FFE5D9"/>
<path d="M178.907 73C205.532 104.731 201.393 152.037 169.662 178.662C137.932 205.288 90.6251 201.149 64 169.418C64 169.418 101 187 122 184C136.5 184 144.5 180.5 154.5 175.756C174 155.5 168.5 165 174 155.5C180.728 143.879 186 143 184.488 127.5C188.5 106 178.907 73 178.907 73Z" fill="white" fill-opacity="0.5"/>
<path d="M121 196.5C162.697 196.5 196.5 162.697 196.5 121C196.5 79.3025 162.697 45.5 121 45.5C79.3025 45.5 45.5 79.3025 45.5 121C45.5 162.697 79.3025 196.5 121 196.5Z" stroke="#D9D9D9"/>
<path d="M152.043 90C155.125 90 156.938 91.1179 157.482 93.3537C157.482 94.2601 156.605 95.227 154.853 96.2542L151.862 95.4385H151.499C148.115 95.4385 144.248 100.242 139.897 109.85C139.293 112.207 138.991 114.473 138.991 116.648V120.365H139.353C146.726 118.612 151.439 117.736 153.493 117.736C156.152 118.22 157.482 119.277 157.482 120.909C156.938 122.601 156.062 123.447 154.853 123.447L153.222 123.175C147.058 123.719 142.526 124.655 139.625 125.985V126.619L140.713 141.303C140.713 148.252 139.323 151.727 136.544 151.727C135.577 151.727 134.701 150.971 133.915 149.461C134.882 146.983 135.365 143.871 135.365 140.125C135.365 136.318 135.003 131.997 134.278 127.163L129.927 127.707C125.999 127.344 124.035 126.105 124.035 123.99C124.639 122.298 125.606 121.452 126.936 121.452L129.202 122.087H130.833L133.734 121.724V116.648C133.734 107.282 137.873 99.0641 146.152 91.9941C148.025 90.6647 149.989 90 152.043 90Z" fill="#386641" stroke="#386641" stroke-width="3"/>
<path d="M112.915 94.4414C114.002 94.4414 114.758 95.378 115.181 97.2513C115.181 98.339 113.277 99.8497 109.47 101.783C104.757 105.892 101.252 112.962 98.9558 122.993V124.625C104.213 122.027 107.99 120.455 110.286 119.912C111.011 119.912 111.887 120.546 112.915 121.815V123.537C112.915 124.202 110.256 125.531 104.938 127.525C100.95 129.701 98.9558 130.94 98.9558 131.242V132.057C98.9558 135.441 101.131 138.372 105.482 140.85L108.564 141.394C110.558 141.394 113.519 140.155 117.447 137.677H118.534C119.803 138.282 120.438 139.158 120.438 140.306V140.85C116.691 144.777 112.552 146.741 108.02 146.741C101.554 146.741 96.8408 142.391 93.8799 133.689L88.1695 134.867C85.3898 134.444 84 133.538 84 132.148C84 130.758 84.8158 129.761 86.4473 129.157L88.5321 129.52C91.6743 128.613 93.2454 127.948 93.2454 127.525C93.2454 117.253 97.143 107.735 104.938 98.9735C108.866 95.9521 111.525 94.4414 112.915 94.4414Z" fill="#386641" stroke="#386641" stroke-width="3"/>
<path d="M35.2129 63.6553C38.1666 56.7632 42.2434 51.3909 47.4957 46.4101C48.0592 46.0361 48.4226 45.6769 49.5616 45.6769H53.2251C55.9529 45.6769 56.9944 47.1607 55.0569 49.3404C53.0072 51.6463 51.203 55.1783 49.6973 57.8886C48.8263 59.4563 46.7878 62.5819 45.2875 63.5196C43.8091 64.4436 42 68.2939 41.1491 70.8466C39.8284 74.8088 36.9955 76.7368 35.2129 80.5C33.8665 83.3424 34.3188 87.2159 33 90C31.9942 92.1233 30.6335 96.628 30.6335 99.1031C30.6335 105.437 31.1789 112.624 29.5 118.5C28.8532 120.764 25.5321 120.779 23.6118 120.779C20.8589 120.779 21.4747 114.829 21.4747 113.147C21.4747 107.926 22.2122 102.787 22.7298 97.6105C23.2341 92.5677 23.1582 87.9682 25.4096 83.4653C28.7078 76.8689 32.3154 70.4161 35.2129 63.6553Z" fill="white"/>
<path d="M23.6692 143.841C22.6692 138.341 23.0863 133.685 23.0863 130.053C23.1692 128.841 23.9676 127 25.8339 127C28.9611 127 27.7788 127.276 28.8868 129.714C30.5899 133.461 30.1692 139.341 30.3794 144.402C29.9545 146.314 29.3069 147.149 27.3604 147.149C25.2322 147.149 24.9571 145.415 23.6692 143.841Z" fill="white"/>
</svg>
